# xmcd
# 
# Track frame offsets:
#     150
#     16486
#     36455
#     58680
#     82078
#     102963
#     121120
#     139041
#     159256
#     183501
#     202175
#     222765
# 
# Disc length: 3234
# 
# Revision: 0
# Processed by: cddbd v1.5.2PL0 Copyright (c) Steve Scherf et al.
# Submitted via: fre:ac v1.0.31
# 
DISCID=a90ca00c
DTITLE=スフィア - Third Planet
DYEAR=2012
DGENRE=
TTITLE0=LET・ME・DO!!
TTITLE1=Hazy
TTITLE2=Planet Freedom
TTITLE3=Hello, my love
TTITLE4=Non stop road
TTITLE5=Stop Motion
TTITLE6=Neo Eden
TTITLE7=HIGH POWERED
TTITLE8=Feathering me, Y/N?
TTITLE9=虹色の約束
TTITLE10=明日への帰り道
TTITLE11=GO AHEAD!!
EXTD=
EXTT0=
EXTT1=
EXTT2=
EXTT3=
EXTT4=
EXTT5=
EXTT6=
EXTT7=
EXTT8=
EXTT9=
EXTT10=
EXTT11=
PLAYORDER=
